<svg xmlns="http://www.w3.org/2000/svg" xmlns:xlink="http://www.w3.org/1999/xlink" width="880" height="400" viewBox="0 0 880 400" font-family="'JetBrains Mono','Fira Code','SFMono-Regular',Consolas,Menlo,monospace">
  <defs>
    <linearGradient id="shimmer" x1="0" y1="0" x2="1" y2="0">
      <stop offset="0" stop-color="#B98A2E"/>
      <stop offset="0.45" stop-color="#B98A2E"/>
      <stop offset="0.5" stop-color="#FFE9B0"/>
      <stop offset="0.55" stop-color="#B98A2E"/>
      <stop offset="1" stop-color="#B98A2E"/>
      <animateTransform attributeName="gradientTransform" type="translate" values="-1 0; 1 0" dur="3.6s" begin="2.4s" repeatCount="indefinite"/>
    </linearGradient>
    <linearGradient id="glare" x1="0" y1="0" x2="0" y2="1">
      <stop offset="0" stop-color="#ffffff" stop-opacity=".05"/>
      <stop offset="1" stop-color="#ffffff" stop-opacity="0"/>
    </linearGradient>
    <clipPath id="panelClip"><rect x="1.5" y="1.5" width="877" height="397" rx="12"/></clipPath>
    <clipPath id="typeClip">
      <rect x="66" y="296" width="0" height="20">
        <animate attributeName="width" begin="4.4s" dur="1.3s" fill="freeze" calcMode="discrete"
          values="0;15;30;45;60;75;90;105;120;135;150;165;180;195;210;225;240;255;270;285;300;315;330;345;360;375;390;405;420"/>
      </rect>
    </clipPath>
    <clipPath id="glitchTop"><rect x="60" y="118" width="760" height="16"/></clipPath>
    <clipPath id="glitchBottom"><rect x="60" y="172" width="760" height="14"/></clipPath>
    <g id="nameArt">
      <rect x="70.0" y="118" width="78.6" height="12.6" rx="2"/>
      <rect x="190.0" y="118" width="28.6" height="12.6" rx="2"/>
      <rect x="260.0" y="118" width="38.6" height="12.6" rx="2"/>
      <rect x="310.0" y="118" width="18.6" height="12.6" rx="2"/>
      <rect x="370.0" y="118" width="18.6" height="12.6" rx="2"/>
      <rect x="430.0" y="118" width="18.6" height="12.6" rx="2"/>
      <rect x="490.0" y="118" width="18.6" height="12.6" rx="2"/>
      <rect x="520.0" y="118" width="18.6" height="12.6" rx="2"/>
      <rect x="590.0" y="118" width="18.6" height="12.6" rx="2"/>
      <rect x="650.0" y="118" width="28.6" height="12.6" rx="2"/>
      <rect x="720.0" y="118" width="18.6" height="12.6" rx="2"/>
      <rect x="780.0" y="118" width="18.6" height="12.6" rx="2"/>
      <rect x="120.0" y="133" width="18.6" height="12.6" rx="2"/>
      <rect x="180.0" y="133" width="18.6" height="12.6" rx="2"/>
      <rect x="210.0" y="133" width="18.6" height="12.6" rx="2"/>
      <rect x="270.0" y="133" width="18.6" height="12.6" rx="2"/>
      <rect x="310.0" y="133" width="28.6" height="12.6" rx="2"/>
      <rect x="370.0" y="133" width="18.6" height="12.6" rx="2"/>
      <rect x="430.0" y="133" width="18.6" height="12.6" rx="2"/>
      <rect x="480.0" y="133" width="18.6" height="12.6" rx="2"/>
      <rect x="520.0" y="133" width="18.6" height="12.6" rx="2"/>
      <rect x="590.0" y="133" width="18.6" height="12.6" rx="2"/>
      <rect x="640.0" y="133" width="18.6" height="12.6" rx="2"/>
      <rect x="670.0" y="133" width="18.6" height="12.6" rx="2"/>
      <rect x="720.0" y="133" width="28.6" height="12.6" rx="2"/>
      <rect x="780.0" y="133" width="18.6" height="12.6" rx="2"/>
      <rect x="110.0" y="148" width="18.6" height="12.6" rx="2"/>
      <rect x="170.0" y="148" width="18.6" height="12.6" rx="2"/>
      <rect x="220.0" y="148" width="18.6" height="12.6" rx="2"/>
      <rect x="270.0" y="148" width="18.6" height="12.6" rx="2"/>
      <rect x="310.0" y="148" width="38.6" height="12.6" rx="2"/>
      <rect x="370.0" y="148" width="18.6" height="12.6" rx="2"/>
      <rect x="430.0" y="148" width="18.6" height="12.6" rx="2"/>
      <rect x="470.0" y="148" width="18.6" height="12.6" rx="2"/>
      <rect x="520.0" y="148" width="18.6" height="12.6" rx="2"/>
      <rect x="590.0" y="148" width="18.6" height="12.6" rx="2"/>
      <rect x="630.0" y="148" width="18.6" height="12.6" rx="2"/>
      <rect x="680.0" y="148" width="18.6" height="12.6" rx="2"/>
      <rect x="720.0" y="148" width="38.6" height="12.6" rx="2"/>
      <rect x="780.0" y="148" width="18.6" height="12.6" rx="2"/>
      <rect x="100.0" y="163" width="18.6" height="12.6" rx="2"/>
      <rect x="160.0" y="163" width="18.6" height="12.6" rx="2"/>
      <rect x="230.0" y="163" width="18.6" height="12.6" rx="2"/>
      <rect x="270.0" y="163" width="18.6" height="12.6" rx="2"/>
      <rect x="310.0" y="163" width="18.6" height="12.6" rx="2"/>
      <rect x="340.0" y="163" width="18.6" height="12.6" rx="2"/>
      <rect x="370.0" y="163" width="18.6" height="12.6" rx="2"/>
      <rect x="430.0" y="163" width="48.6" height="12.6" rx="2"/>
      <rect x="520.0" y="163" width="88.6" height="12.6" rx="2"/>
      <rect x="620.0" y="163" width="18.6" height="12.6" rx="2"/>
      <rect x="690.0" y="163" width="18.6" height="12.6" rx="2"/>
      <rect x="720.0" y="163" width="18.6" height="12.6" rx="2"/>
      <rect x="750.0" y="163" width="18.6" height="12.6" rx="2"/>
      <rect x="780.0" y="163" width="18.6" height="12.6" rx="2"/>
      <rect x="90.0" y="178" width="18.6" height="12.6" rx="2"/>
      <rect x="160.0" y="178" width="88.6" height="12.6" rx="2"/>
      <rect x="270.0" y="178" width="18.6" height="12.6" rx="2"/>
      <rect x="310.0" y="178" width="18.6" height="12.6" rx="2"/>
      <rect x="350.0" y="178" width="38.6" height="12.6" rx="2"/>
      <rect x="430.0" y="178" width="18.6" height="12.6" rx="2"/>
      <rect x="470.0" y="178" width="18.6" height="12.6" rx="2"/>
      <rect x="520.0" y="178" width="18.6" height="12.6" rx="2"/>
      <rect x="590.0" y="178" width="18.6" height="12.6" rx="2"/>
      <rect x="620.0" y="178" width="88.6" height="12.6" rx="2"/>
      <rect x="720.0" y="178" width="18.6" height="12.6" rx="2"/>
      <rect x="760.0" y="178" width="38.6" height="12.6" rx="2"/>
      <rect x="80.0" y="193" width="18.6" height="12.6" rx="2"/>
      <rect x="160.0" y="193" width="18.6" height="12.6" rx="2"/>
      <rect x="230.0" y="193" width="18.6" height="12.6" rx="2"/>
      <rect x="270.0" y="193" width="18.6" height="12.6" rx="2"/>
      <rect x="310.0" y="193" width="18.6" height="12.6" rx="2"/>
      <rect x="360.0" y="193" width="28.6" height="12.6" rx="2"/>
      <rect x="430.0" y="193" width="18.6" height="12.6" rx="2"/>
      <rect x="480.0" y="193" width="18.6" height="12.6" rx="2"/>
      <rect x="520.0" y="193" width="18.6" height="12.6" rx="2"/>
      <rect x="590.0" y="193" width="18.6" height="12.6" rx="2"/>
      <rect x="620.0" y="193" width="18.6" height="12.6" rx="2"/>
      <rect x="690.0" y="193" width="18.6" height="12.6" rx="2"/>
      <rect x="720.0" y="193" width="18.6" height="12.6" rx="2"/>
      <rect x="770.0" y="193" width="28.6" height="12.6" rx="2"/>
      <rect x="70.0" y="208" width="78.6" height="12.6" rx="2"/>
      <rect x="160.0" y="208" width="18.6" height="12.6" rx="2"/>
      <rect x="230.0" y="208" width="18.6" height="12.6" rx="2"/>
      <rect x="260.0" y="208" width="38.6" height="12.6" rx="2"/>
      <rect x="310.0" y="208" width="18.6" height="12.6" rx="2"/>
      <rect x="370.0" y="208" width="18.6" height="12.6" rx="2"/>
      <rect x="430.0" y="208" width="18.6" height="12.6" rx="2"/>
      <rect x="490.0" y="208" width="18.6" height="12.6" rx="2"/>
      <rect x="520.0" y="208" width="18.6" height="12.6" rx="2"/>
      <rect x="590.0" y="208" width="18.6" height="12.6" rx="2"/>
      <rect x="620.0" y="208" width="18.6" height="12.6" rx="2"/>
      <rect x="690.0" y="208" width="18.6" height="12.6" rx="2"/>
      <rect x="720.0" y="208" width="18.6" height="12.6" rx="2"/>
      <rect x="780.0" y="208" width="18.6" height="12.6" rx="2"/>
    </g>
  </defs>

  <!-- panel -->
  <rect x="1.5" y="1.5" width="877" height="397" rx="12" fill="#081120" stroke="#1B2C47" stroke-width="1.5"/>
  <rect x="1.5" y="1.5" width="877" height="200" rx="12" fill="url(#glare)"/>

  <g clip-path="url(#panelClip)">
    <!-- glyph rain columns, faint, behind everything -->
    <g font-size="11" fill="#16294A" xml:space="preserve" opacity="0.9">
      <text x="120" y="0">1<tspan x="120" dy="14">0</tspan><tspan x="120" dy="14">x</tspan><tspan x="120" dy="14">7</tspan><tspan x="120" dy="14">f</tspan><tspan x="120" dy="14">1</tspan><tspan x="120" dy="14">0</tspan>
        <animateTransform attributeName="transform" type="translate" values="0 -100; 0 500" dur="9s" repeatCount="indefinite"/></text>
      <text x="300" y="0">0<tspan x="300" dy="14">1</tspan><tspan x="300" dy="14">a</tspan><tspan x="300" dy="14">e</tspan><tspan x="300" dy="14">0</tspan><tspan x="300" dy="14">1</tspan>
        <animateTransform attributeName="transform" type="translate" values="0 -160; 0 500" dur="12s" begin="-4s" repeatCount="indefinite"/></text>
      <text x="480" y="0">f<tspan x="480" dy="14">0</tspan><tspan x="480" dy="14">1</tspan><tspan x="480" dy="14">c</tspan><tspan x="480" dy="14">3</tspan><tspan x="480" dy="14">0</tspan><tspan x="480" dy="14">1</tspan>
        <animateTransform attributeName="transform" type="translate" values="0 -120; 0 500" dur="10.5s" begin="-7s" repeatCount="indefinite"/></text>
      <text x="660" y="0">1<tspan x="660" dy="14">1</tspan><tspan x="660" dy="14">0</tspan><tspan x="660" dy="14">d</tspan><tspan x="660" dy="14">4</tspan><tspan x="660" dy="14">0</tspan>
        <animateTransform attributeName="transform" type="translate" values="0 -140; 0 500" dur="8s" begin="-2s" repeatCount="indefinite"/></text>
      <text x="810" y="0">0<tspan x="810" dy="14">x</tspan><tspan x="810" dy="14">9</tspan><tspan x="810" dy="14">b</tspan><tspan x="810" dy="14">0</tspan>
        <animateTransform attributeName="transform" type="translate" values="0 -180; 0 500" dur="13s" begin="-9s" repeatCount="indefinite"/></text>
    </g>

    <!-- faint scanlines -->
    <g stroke="#0E1D33" stroke-width="1">
      <line x1="2" y1="120" x2="878" y2="120"/><line x1="2" y1="160" x2="878" y2="160"/>
      <line x1="2" y1="200" x2="878" y2="200"/><line x1="2" y1="240" x2="878" y2="240"/>
    </g>

    <!-- CRT sweep -->
    <rect x="2" y="-60" width="876" height="46" fill="#E9E4D6" opacity="0.025">
      <animate attributeName="y" values="-60;400" dur="7s" repeatCount="indefinite"/>
    </rect>
  </g>

  <!-- chrome bar -->
  <rect x="1.5" y="1.5" width="877" height="38" rx="12" fill="#0C1930"/>
  <rect x="1.5" y="27" width="877" height="13" fill="#0C1930"/>
  <circle cx="26" cy="20" r="5.5" fill="#E5564F"/>
  <circle cx="46" cy="20" r="5.5" fill="#E8B44F"/>
  <circle cx="66" cy="20" r="5.5" fill="#4ADE80"/>
  <text x="440" y="25" text-anchor="middle" font-size="12" fill="#5C7291">zain@khan : ~/security — zsh</text>
  <text x="852" y="25" text-anchor="end" font-size="11" fill="#33486B">tty1</text>

  <!-- boot log -->
  <g font-size="12" xml:space="preserve">
    <text x="34" y="64" opacity="0" fill="#5C7291">[ <tspan fill="#4ADE80">OK</tspan> ] mounting /dev/skills · loading threat feeds · initializing agents<animate attributeName="opacity" begin="0.1s" dur="0.15s" to="1" fill="freeze"/></text>
    <text x="34" y="84" opacity="0" fill="#5C7291">[ <tspan fill="#4ADE80">OK</tspan> ] handshake with github.com/zkkhan01 ... identity verified<animate attributeName="opacity" begin="0.6s" dur="0.15s" to="1" fill="freeze"/></text>
    <text x="34" y="104" opacity="0" fill="#5C7291">[ <tspan fill="#E8B44F">**</tspan> ] rendering operator profile ▾<animate attributeName="opacity" begin="1.1s" dur="0.15s" to="1" fill="freeze"/></text>
  </g>

  <!-- ASCII name: reveal, then continuous shimmer -->
  <g opacity="0">
    <animate attributeName="opacity" begin="1.5s" dur="0.06s" to="1" fill="freeze"/>
    <!-- flicker-in -->
    <animate attributeName="opacity" begin="1.56s" dur="0.5s" values="1;0.2;1;0.35;1" calcMode="discrete" fill="freeze"/>
    <use href="#nameArt" xlink:href="#nameArt" fill="#241A06" transform="translate(4,5)"/>
    <use href="#nameArt" xlink:href="#nameArt" fill="url(#shimmer)"/>
    <!-- glitch slices: brief horizontal displacement, repeating rarely -->
    <g clip-path="url(#glitchTop)">
      <use href="#nameArt" xlink:href="#nameArt" fill="#E8B44F" opacity="0">
        <animate attributeName="opacity" values="0;1;0" keyTimes="0;0.5;1" dur="0.18s" begin="6s;13s;21s" />
        <animateTransform attributeName="transform" type="translate" values="0 0;7 0;-5 0;0 0" dur="0.18s" begin="6s;13s;21s"/>
      </use>
    </g>
    <g clip-path="url(#glitchBottom)">
      <use href="#nameArt" xlink:href="#nameArt" fill="#7FB4FF" opacity="0">
        <animate attributeName="opacity" values="0;0.9;0" keyTimes="0;0.5;1" dur="0.18s" begin="6.05s;13.05s;21.05s"/>
        <animateTransform attributeName="transform" type="translate" values="0 0;-8 0;5 0;0 0" dur="0.18s" begin="6.05s;13.05s;21.05s"/>
      </use>
    </g>
  </g>

  <!-- subtitle rule -->
  <g opacity="0">
    <animate attributeName="opacity" begin="2.6s" dur="0.5s" to="1" fill="freeze"/>
    <text x="70" y="254" font-size="13" fill="#5C7291" xml:space="preserve">──────  cybersecurity · software engineering · ai systems  ──────  chicago, il  ──────</text>
  </g>

  <!-- typed command -->
  <text x="46" y="311" font-size="14" fill="#4ADE80" opacity="0">$<animate attributeName="opacity" begin="4.2s" dur="0.1s" to="1" fill="freeze"/></text>
  <g clip-path="url(#typeClip)">
    <text x="66" y="311" font-size="14" fill="#E9E4D6" xml:space="preserve">whoami --verbose</text>
  </g>

  <!-- command output -->
  <g opacity="0">
    <animate attributeName="opacity" begin="5.9s" dur="0.4s" to="1" fill="freeze"/>
    <text x="66" y="338" font-size="13" fill="#8FA3BF" xml:space="preserve">B.S. Cybersecurity @ DePaul · CS minor · class of 2027 · 50+ certifications</text>
    <text x="66" y="358" font-size="13" fill="#8FA3BF" xml:space="preserve">builds: threat intel platforms · AI agents · production client systems</text>
  </g>
  <!-- cursor blink via overlay mask on the tspan block: simpler separate rect -->
  <rect x="66" y="346" width="9" height="15" fill="#E8B44F" opacity="0">
    <animate attributeName="opacity" begin="6.3s" dur="1.1s" values="0;1;1;0;0" keyTimes="0;0.05;0.5;0.55;1" repeatCount="indefinite"/>
    <animateTransform attributeName="transform" type="translate" begin="5.9s" dur="0.05s" from="0 0" to="562 0" fill="freeze"/>
  </rect>

  <!-- status bar -->
  <g opacity="0">
    <animate attributeName="opacity" begin="6.4s" dur="0.5s" to="1" fill="freeze"/>
    <rect x="1.5" y="372" width="877" height="26.5" fill="#0C1930"/>
    <path d="M1.5 372 h877 v14 a12 12 0 0 1 -12 12 h-853 a12 12 0 0 1 -12 -12 z" fill="#0C1930"/>
    <circle cx="34" cy="385" r="4" fill="#4ADE80">
      <animate attributeName="opacity" values="1;0.25;1" dur="2s" repeatCount="indefinite"/>
    </circle>
    <text x="48" y="389" font-size="11" fill="#5C7291" xml:space="preserve">SYSTEMS NOMINAL</text>
    <text x="440" y="389" text-anchor="middle" font-size="11" fill="#33486B" xml:space="preserve">zainkkhan.vercel.app</text>
    <text x="846" y="389" text-anchor="end" font-size="11" fill="#5C7291" xml:space="preserve">UPTIME <tspan fill="#E8B44F">since 2023</tspan> · 41.88°N 87.63°W</text>
  </g>
</svg>
